<?xml version="1.0" encoding="UTF-8" standalone="no"?>
<svg
   xmlns:dc="http://purl.org/dc/elements/1.1/"
   xmlns:cc="http://creativecommons.org/ns#"
   xmlns:rdf="http://www.w3.org/1999/02/22-rdf-syntax-ns#"
   xmlns:svg="http://www.w3.org/2000/svg"
   xmlns="http://www.w3.org/2000/svg"
   xmlns:sodipodi="http://sodipodi.sourceforge.net/DTD/sodipodi-0.dtd"
   xmlns:inkscape="http://www.inkscape.org/namespaces/inkscape"
   width="16"
   height="16"
   fill="currentColor"
   class="bi bi-question-octagon-fill"
   viewBox="0 0 16 16"
   version="1.1"
   id="svg4"
   sodipodi:docname="help.svg"
   inkscape:version="0.92.1 r15371">
  <metadata
     id="metadata10">
    <rdf:RDF>
      <cc:Work
         rdf:about="">
        <dc:format>image/svg+xml</dc:format>
        <dc:type
           rdf:resource="http://purl.org/dc/dcmitype/StillImage" />
        <dc:title></dc:title>
      </cc:Work>
    </rdf:RDF>
  </metadata>
  <defs
     id="defs8" />
  <sodipodi:namedview
     pagecolor="#ffffff"
     bordercolor="#666666"
     borderopacity="1"
     objecttolerance="10"
     gridtolerance="10"
     guidetolerance="10"
     inkscape:pageopacity="0"
     inkscape:pageshadow="2"
     inkscape:window-width="1366"
     inkscape:window-height="705"
     id="namedview6"
     showgrid="false"
     inkscape:zoom="14.75"
     inkscape:cx="8"
     inkscape:cy="8"
     inkscape:window-x="-8"
     inkscape:window-y="-8"
     inkscape:window-maximized="1"
     inkscape:current-layer="svg4" />
  <path
     d="M11.46.146A.5.5 0 0 0 11.107 0H4.893a.5.5 0 0 0-.353.146L.146 4.54A.5.5 0 0 0 0 4.893v6.214a.5.5 0 0 0 .146.353l4.394 4.394a.5.5 0 0 0 .353.146h6.214a.5.5 0 0 0 .353-.146l4.394-4.394a.5.5 0 0 0 .146-.353V4.893a.5.5 0 0 0-.146-.353L11.46.146zM5.496 6.033a.237.237 0 0 1-.24-.247C5.35 4.091 6.737 3.5 8.005 3.5c1.396 0 2.672.73 2.672 2.24 0 1.08-.635 1.594-1.244 2.057-.737.559-1.01.768-1.01 1.486v.105a.25.25 0 0 1-.25.25h-.81a.25.25 0 0 1-.25-.246l-.004-.217c-.038-.927.495-1.498 1.168-1.987.59-.444.965-.736.965-1.371 0-.825-.628-1.168-1.314-1.168-.803 0-1.253.478-1.342 1.134-.018.137-.128.25-.266.25h-.825zm2.325 6.443c-.584 0-1.009-.394-1.009-.927 0-.552.425-.94 1.01-.94.609 0 1.028.388 1.028.94 0 .533-.42.927-1.029.927z"
     id="path2" />
  <path
     style="fill:#1a1a1a;stroke-width:0.06779661"
     d="M 7.1991058,9.5107869 C 7.0756656,9.3620506 7.1506567,8.6201326 7.3233452,8.2816351 7.5329365,7.8708022 7.7697668,7.6165106 8.3643007,7.1639304 9.0634122,6.6317422 9.24686,6.3557114 9.2518262,5.8284857 9.2589875,5.0682138 8.7897892,4.6415536 7.9429024,4.6382308 7.2537037,4.6355266 6.7425591,4.9829723 6.6137117,5.5417354 6.5190925,5.9520635 6.4199314,6.020339 5.9186028,6.020339 5.3488756,6.020339 5.2653481,5.9476638 5.3260527,5.5047758 5.4677214,4.4711896 6.2746606,3.7540105 7.5011945,3.5715863 8.9404513,3.3575235 10.252544,4.0427147 10.556969,5.1673494 10.753824,5.8945919 10.598662,6.5780542 10.110477,7.1340656 9.9852209,7.2767247 9.6046133,7.6148636 9.2646825,7.8854854 8.6070199,8.4090561 8.420339,8.6782079 8.420339,9.1028387 c 0,0.4500536 -0.075804,0.5107206 -0.6381518,0.5107206 -0.3620891,0 -0.5210393,-0.028016 -0.5830814,-0.1027724 z"
     id="path12"
     inkscape:connector-curvature="0" />
  <path
     style="fill:#1a1a1a;stroke-width:0.06779661"
     d="m 7.3672827,12.329368 c -0.713108,-0.362876 -0.6751498,-1.316191 0.063641,-1.598337 0.5154527,-0.196854 0.9940515,-0.04736 1.2635849,0.394687 0.1679693,0.275477 0.1679693,0.564612 0,0.84009 -0.2753405,0.451571 -0.8467026,0.608081 -1.3272259,0.36356 z"
     id="path14"
     inkscape:connector-curvature="0" />
  <path
     style="fill:#ffffff;stroke-width:0.06779661"
     d="M 2.3705734,13.629426 0.01355932,11.272413 V 8.0667376 c 0,-2.6477198 0.01685843,-3.237539 0.09685848,-3.3887484 C 0.16368996,4.5772985 1.2096755,3.4957627 2.4348301,2.2745763 L 4.662384,0.05423729 h 3.3192919 3.3192921 l 2.322397,2.32166541 2.322398,2.3216654 v 3.3200238 3.3200241 l -2.220339,2.227554 c -1.221187,1.225155 -2.302722,2.27114 -2.403413,2.324412 -0.15121,0.08 -0.741029,0.09686 -3.3887486,0.09686 H 4.7275875 Z m 6.0879168,-1.308853 c 0.2766217,-0.168001 0.4035105,-0.423965 0.3979234,-0.802707 -0.0086,-0.58328 -0.3860882,-0.912526 -1.0509505,-0.916652 -0.4333831,-0.0027 -0.6764794,0.123526 -0.8796326,0.456707 -0.2223898,0.36473 -0.142038,0.938684 0.167362,1.195463 0.3418678,0.283725 0.9587709,0.314084 1.3652977,0.06719 z M 8.3496095,9.5831953 C 8.3944156,9.5292068 8.4536447,9.3187227 8.4812292,9.1154529 8.5464902,8.6345424 8.6568793,8.4775139 9.286899,7.9693919 10.290969,7.1595912 10.602845,6.7196925 10.694823,5.9835268 10.748426,5.5545005 10.588743,4.8751203 10.348902,4.5117887 9.8567254,3.7661959 8.6446895,3.3448024 7.4711864,3.5112814 6.227339,3.6877398 5.3832382,4.4643338 5.2545847,5.5506109 c -0.054243,0.4579964 0.043004,0.5375247 0.6572797,0.5375247 0.5335791,0 0.641713,-0.068307 0.7473919,-0.4721184 C 6.7584169,5.2371094 7.1410922,4.8415028 7.5066136,4.740026 8.534981,4.4545282 9.4103478,5.1794633 9.1604895,6.1096836 9.0815647,6.4035193 8.8602292,6.646024 7.9199505,7.4688705 7.3611485,7.9578834 7.1379376,8.3663166 7.0851071,8.9964759 c -0.051372,0.6127668 0.021039,0.68488 0.6877051,0.68488 0.3496597,0 0.5192895,-0.028868 0.5767973,-0.098161 z"
     id="path16"
     inkscape:connector-curvature="0" />
</svg>
