<?xml version="1.0" encoding="UTF-8" standalone="no"?>
<svg
   xmlns:dc="http://purl.org/dc/elements/1.1/"
   xmlns:cc="http://creativecommons.org/ns#"
   xmlns:rdf="http://www.w3.org/1999/02/22-rdf-syntax-ns#"
   xmlns:svg="http://www.w3.org/2000/svg"
   xmlns="http://www.w3.org/2000/svg"
   xmlns:sodipodi="http://sodipodi.sourceforge.net/DTD/sodipodi-0.dtd"
   xmlns:inkscape="http://www.inkscape.org/namespaces/inkscape"
   width="16"
   height="16"
   fill="currentColor"
   class="bi bi-list-stars"
   viewBox="0 0 16 16"
   version="1.1"
   id="svg6"
   sodipodi:docname="profile.svg"
   inkscape:version="0.92.1 r15371">
  <metadata
     id="metadata12">
    <rdf:RDF>
      <cc:Work
         rdf:about="">
        <dc:format>image/svg+xml</dc:format>
        <dc:type
           rdf:resource="http://purl.org/dc/dcmitype/StillImage" />
        <dc:title></dc:title>
      </cc:Work>
    </rdf:RDF>
  </metadata>
  <defs
     id="defs10" />
  <sodipodi:namedview
     pagecolor="#ffffff"
     bordercolor="#666666"
     borderopacity="1"
     objecttolerance="10"
     gridtolerance="10"
     guidetolerance="10"
     inkscape:pageopacity="0"
     inkscape:pageshadow="2"
     inkscape:window-width="1366"
     inkscape:window-height="705"
     id="namedview8"
     showgrid="false"
     inkscape:zoom="14.75"
     inkscape:cx="8"
     inkscape:cy="8"
     inkscape:window-x="-8"
     inkscape:window-y="-8"
     inkscape:window-maximized="1"
     inkscape:current-layer="svg6" />
  <path
     fill-rule="evenodd"
     d="M5 11.5a.5.5 0 0 1 .5-.5h9a.5.5 0 0 1 0 1h-9a.5.5 0 0 1-.5-.5zm0-4a.5.5 0 0 1 .5-.5h9a.5.5 0 0 1 0 1h-9a.5.5 0 0 1-.5-.5zm0-4a.5.5 0 0 1 .5-.5h9a.5.5 0 0 1 0 1h-9a.5.5 0 0 1-.5-.5z"
     id="path2" />
  <path
     d="M2.242 2.194a.27.27 0 0 1 .516 0l.162.53c.035.115.14.194.258.194h.551c.259 0 .37.333.164.493l-.468.363a.277.277 0 0 0-.094.3l.173.569c.078.256-.213.462-.423.3l-.417-.324a.267.267 0 0 0-.328 0l-.417.323c-.21.163-.5-.043-.423-.299l.173-.57a.277.277 0 0 0-.094-.299l-.468-.363c-.206-.16-.095-.493.164-.493h.55a.271.271 0 0 0 .259-.194l.162-.53zm0 4a.27.27 0 0 1 .516 0l.162.53c.035.115.14.194.258.194h.551c.259 0 .37.333.164.493l-.468.363a.277.277 0 0 0-.094.3l.173.569c.078.255-.213.462-.423.3l-.417-.324a.267.267 0 0 0-.328 0l-.417.323c-.21.163-.5-.043-.423-.299l.173-.57a.277.277 0 0 0-.094-.299l-.468-.363c-.206-.16-.095-.493.164-.493h.55a.271.271 0 0 0 .259-.194l.162-.53zm0 4a.27.27 0 0 1 .516 0l.162.53c.035.115.14.194.258.194h.551c.259 0 .37.333.164.493l-.468.363a.277.277 0 0 0-.094.3l.173.569c.078.255-.213.462-.423.3l-.417-.324a.267.267 0 0 0-.328 0l-.417.323c-.21.163-.5-.043-.423-.299l.173-.57a.277.277 0 0 0-.094-.299l-.468-.363c-.206-.16-.095-.493.164-.493h.55a.271.271 0 0 0 .259-.194l.162-.53z"
     id="path4" />
  <path
     style="fill:#ffffff;stroke-width:0.06779661"
     d="M 1.5425708,4.811304 C 1.5208745,4.7429449 1.5493271,4.5560584 1.6057988,4.3960005 1.7596479,3.9599458 1.7388582,3.8892325 1.3611342,3.5638038 1.0777967,3.319694 1.0224219,3.2373674 1.0606181,3.1170218 1.1014113,2.9884937 1.1570648,2.9693578 1.4927043,2.9684534 1.7045982,2.9678839 1.9191027,2.9413458 1.9693807,2.9094832 2.0196588,2.8776205 2.1137483,2.6891174 2.1784685,2.4905872 2.3750596,1.887542 2.6531621,1.8767084 2.801626,2.4663119 2.9023919,2.86649 3.0273078,2.9580262 3.5061612,2.9825838 c 0.3558633,0.01825 0.4082585,0.038736 0.4265036,0.1667548 0.014816,0.1039555 -0.06735,0.2196331 -0.2855676,0.4020407 -0.1685024,0.1408506 -0.3210609,0.294381 -0.3390188,0.3411786 -0.017958,0.046798 0.015226,0.253385 0.073742,0.459083 0.058516,0.2056981 0.088265,0.4212365 0.066109,0.4789744 C 3.3847968,4.9951357 3.1414843,4.9543376 2.8610169,4.7322034 2.7197766,4.620339 2.5606516,4.5288136 2.5074058,4.5288136 c -0.053246,0 -0.2166522,0.090677 -0.3631252,0.2015037 C 1.8390138,4.9612938 1.6003702,4.9934139 1.5425708,4.811304 Z"
     id="path14"
     inkscape:connector-curvature="0" />
  <path
     style="fill:#ffffff;stroke-width:0.06779661"
     d="M 5.1969183,3.8200308 C 4.9880454,3.6111578 4.9845196,3.3753147 5.1874204,3.1846993 l 0.156912,-0.1474112 h 4.6272061 c 3.1319645,0 4.6706305,0.02324 4.7615875,0.071919 0.324924,0.1738943 0.264107,0.7390072 -0.08973,0.8337925 -0.08539,0.022874 -2.208339,0.042006 -4.7176611,0.042515 l -4.5624037,9.258e-4 z"
     id="path16"
     inkscape:connector-curvature="0" />
  <path
     style="fill:#ffffff;stroke-width:0.06779661"
     d="M 1.5425708,8.811304 C 1.5208745,8.7429449 1.5493271,8.5560584 1.6057988,8.3960005 1.7596479,7.9599458 1.7388582,7.8892325 1.3611342,7.5638038 1.0777967,7.319694 1.0224219,7.2373674 1.0606181,7.1170218 1.1014113,6.9884937 1.1570648,6.9693578 1.4927043,6.9684534 1.7045982,6.9678839 1.9191027,6.9413458 1.9693807,6.9094832 2.0196588,6.8776205 2.1137483,6.6891174 2.1784685,6.4905872 2.3750596,5.887542 2.6531621,5.8767084 2.801626,6.4663119 2.9023919,6.86649 3.0273078,6.9580262 3.5061612,6.9825838 c 0.3558633,0.01825 0.4082585,0.038736 0.4265036,0.1667548 0.014816,0.1039555 -0.06735,0.2196331 -0.2855676,0.4020407 -0.1685024,0.1408506 -0.3210609,0.294381 -0.3390188,0.3411786 -0.017958,0.046798 0.015226,0.253385 0.073742,0.459083 0.058516,0.2056981 0.088265,0.4212365 0.066109,0.4789744 C 3.3847968,8.9951357 3.1414843,8.9543376 2.8610169,8.7322034 2.7197766,8.620339 2.5606516,8.5288136 2.5074058,8.5288136 c -0.053246,0 -0.2166522,0.090677 -0.3631252,0.2015037 C 1.8390138,8.9612938 1.6003702,8.9934139 1.5425708,8.811304 Z"
     id="path18"
     inkscape:connector-curvature="0" />
  <path
     style="fill:#ffffff;stroke-width:0.06779661"
     d="M 5.1969183,7.8200308 C 4.9880454,7.6111578 4.9845196,7.3753147 5.1874204,7.1846993 l 0.156912,-0.1474112 h 4.6272061 c 3.1319645,0 4.6706305,0.02324 4.7615875,0.071919 0.324924,0.1738943 0.264107,0.7390072 -0.08973,0.8337925 -0.08539,0.022874 -2.208339,0.042006 -4.7176611,0.042516 l -4.5624037,9.258e-4 z"
     id="path20"
     inkscape:connector-curvature="0" />
  <path
     style="fill:#ffffff;stroke-width:0.06779661"
     d="m 5.1969183,11.820031 c -0.2088729,-0.208873 -0.2123987,-0.444716 -0.0095,-0.635332 l 0.156912,-0.147411 h 4.6272061 c 3.1319646,0 4.6706306,0.02324 4.7615876,0.07192 0.324924,0.173894 0.264107,0.739007 -0.08973,0.833792 -0.08539,0.02287 -2.208339,0.04201 -4.7176612,0.04252 l -4.5624037,9.26e-4 z"
     id="path22"
     inkscape:connector-curvature="0" />
  <path
     style="fill:#ffffff;stroke-width:0.06779661"
     d="m 1.5425708,12.811304 c -0.021696,-0.06836 0.00676,-0.255246 0.063228,-0.415303 0.1538491,-0.436055 0.1330594,-0.506768 -0.2446646,-0.832197 -0.2833375,-0.24411 -0.3387123,-0.326437 -0.3005161,-0.446782 0.040793,-0.128528 0.096447,-0.147664 0.4320862,-0.148569 0.2118939,-5.69e-4 0.4263984,-0.02711 0.4766764,-0.05897 0.050278,-0.03186 0.1443676,-0.220366 0.2090878,-0.418896 0.1965911,-0.603045 0.4746936,-0.6138786 0.6231575,-0.02427 0.1007659,0.400178 0.2256818,0.491714 0.7045352,0.516272 0.3558633,0.01825 0.4082585,0.03874 0.4265036,0.166755 0.014816,0.103955 -0.06735,0.219633 -0.2855676,0.40204 -0.1685024,0.140851 -0.3210609,0.294381 -0.3390188,0.341179 -0.017958,0.0468 0.015226,0.253385 0.073742,0.459083 0.058516,0.205698 0.088265,0.421236 0.066109,0.478974 -0.063132,0.164521 -0.3064449,0.123723 -0.5869123,-0.09841 -0.1412403,-0.111864 -0.3003653,-0.203389 -0.3536111,-0.203389 -0.053246,0 -0.2166522,0.09068 -0.3631252,0.201503 -0.3052668,0.230977 -0.5439104,0.263097 -0.6017098,0.08099 z"
     id="path24"
     inkscape:connector-curvature="0" />
</svg>
