<?xml version="1.0" encoding="UTF-8" standalone="no"?>
<svg
   xmlns:dc="http://purl.org/dc/elements/1.1/"
   xmlns:cc="http://creativecommons.org/ns#"
   xmlns:rdf="http://www.w3.org/1999/02/22-rdf-syntax-ns#"
   xmlns:svg="http://www.w3.org/2000/svg"
   xmlns="http://www.w3.org/2000/svg"
   xmlns:sodipodi="http://sodipodi.sourceforge.net/DTD/sodipodi-0.dtd"
   xmlns:inkscape="http://www.inkscape.org/namespaces/inkscape"
   width="16"
   height="16"
   fill="currentColor"
   class="bi bi-share"
   viewBox="0 0 16 16"
   version="1.1"
   id="svg4"
   sodipodi:docname="submit.svg"
   inkscape:version="0.92.1 r15371">
  <metadata
     id="metadata10">
    <rdf:RDF>
      <cc:Work
         rdf:about="">
        <dc:format>image/svg+xml</dc:format>
        <dc:type
           rdf:resource="http://purl.org/dc/dcmitype/StillImage" />
        <dc:title></dc:title>
      </cc:Work>
    </rdf:RDF>
  </metadata>
  <defs
     id="defs8" />
  <sodipodi:namedview
     pagecolor="#ffffff"
     bordercolor="#666666"
     borderopacity="1"
     objecttolerance="10"
     gridtolerance="10"
     guidetolerance="10"
     inkscape:pageopacity="0"
     inkscape:pageshadow="2"
     inkscape:window-width="1366"
     inkscape:window-height="705"
     id="namedview6"
     showgrid="false"
     inkscape:zoom="14.75"
     inkscape:cx="8"
     inkscape:cy="8"
     inkscape:window-x="-8"
     inkscape:window-y="-8"
     inkscape:window-maximized="1"
     inkscape:current-layer="svg4" />
  <path
     d="M13.5 1a1.5 1.5 0 1 0 0 3 1.5 1.5 0 0 0 0-3zM11 2.5a2.5 2.5 0 1 1 .603 1.628l-6.718 3.12a2.499 2.499 0 0 1 0 1.504l6.718 3.12a2.5 2.5 0 1 1-.488.876l-6.718-3.12a2.5 2.5 0 1 1 0-3.256l6.718-3.12A2.5 2.5 0 0 1 11 2.5zm-8.5 4a1.5 1.5 0 1 0 0 3 1.5 1.5 0 0 0 0-3zm11 5.5a1.5 1.5 0 1 0 0 3 1.5 1.5 0 0 0 0-3z"
     id="path2" />
  <path
     style="fill:#ffffff;stroke-width:0.06779661"
     d="M 12.920916,15.894714 C 12.172422,15.704462 11.462643,15.079633 11.201177,14.380804 11.07062,14.031857 11.028771,13.494285 11.083694,12.871637 11.097392,12.71634 10.889702,12.608986 7.760779,11.15404 L 4.4232532,9.6020936 4.1289239,9.8432739 C 3.6240591,10.256973 3.1243536,10.445114 2.5301721,10.445209 1.8543112,10.445345 1.3540934,10.255797 0.87531559,9.818221 -0.43723487,8.6186237 -0.1600846,6.5815864 1.4216203,5.8029157 1.8382149,5.5978268 1.9276375,5.579661 2.5206083,5.579661 c 0.5744919,0 0.6865087,0.021011 1.0183748,0.1910138 0.2050847,0.1050575 0.479661,0.293233 0.6101694,0.4181676 L 4.3864407,6.4159964 7.7423729,4.8573959 11.098305,3.2987953 V 2.5409231 c 0,-0.733307 0.0075,-0.7716471 0.230448,-1.1828446 0.275715,-0.50845097 0.63542,-0.84942187 1.151246,-1.09128763 0.327868,-0.153734 0.470861,-0.17865528 1.025086,-0.17865528 0.556331,0 0.696678,0.02466044 1.030271,0.18102931 0.492663,0.23093136 0.964548,0.70281632 1.195479,1.1954793 0.156369,0.3335934 0.181029,0.4739404 0.181029,1.0302711 0,0.5542244 -0.02492,0.6972173 -0.178655,1.0250854 -0.241866,0.5158266 -0.582837,0.8755316 -1.091288,1.1512467 -0.406539,0.2204517 -0.45585,0.2304475 -1.136836,0.2304475 -0.645527,0 -0.7448,-0.017362 -1.065294,-0.1863146 C 12.245405,4.6129074 11.977347,4.43335 11.844107,4.316364 L 11.601854,4.1036622 11.316181,4.2313482 C 11.159061,4.3015755 9.6423729,5.004577 7.9457627,5.7935736 5.7883315,6.7968719 4.8705788,7.2554773 4.8928247,7.319141 c 0.017494,0.050066 0.033015,0.4059322 0.03449,0.7908149 l 0.00268,0.6997872 3.3211804,1.5428369 3.3211799,1.542837 0.339245,-0.268789 c 0.548468,-0.434557 0.859396,-0.544255 1.559584,-0.550233 0.535333,-0.0046 0.66191,0.01869 1.032026,0.18965 0.495515,0.228882 1.037983,0.765266 1.259899,1.245768 0.121751,0.263618 0.148753,0.445154 0.148753,1.000051 0,0.643344 -0.01185,0.699822 -0.232046,1.105939 -0.550807,1.015874 -1.697634,1.546663 -2.758902,1.276911 z m 1.368545,-1.093893 c 0.437748,-0.256538 0.661443,-0.628169 0.694961,-1.154561 0.03271,-0.513745 -0.06653,-0.844564 -0.350339,-1.167802 -0.540665,-0.615784 -1.574659,-0.662781 -2.169105,-0.09859 -0.51907,0.492649 -0.638554,1.303044 -0.27769,1.883403 0.109534,0.176157 0.277188,0.378193 0.372564,0.448967 0.49349,0.366194 1.194627,0.402103 1.729609,0.08858 z M 2.8982294,9.470059 C 3.2971359,9.3696136 3.7673635,8.9505173 3.91505,8.5638061 4.0808233,8.1297349 4.0269782,7.5395647 3.7887588,7.1795912 3.4927374,6.7322726 3.1299882,6.5341325 2.5620475,6.5095394 2.1291376,6.4907934 2.0462825,6.5092072 1.7285113,6.6948176 0.60257153,7.3524685 0.77595125,9.0023275 2.0174797,9.444602 2.3473057,9.5620969 2.5136226,9.5669044 2.8982294,9.470059 Z M 13.833205,3.9824367 c 0.397036,-0.085149 0.834713,-0.4310503 1.03015,-0.8141389 0.167603,-0.3285288 0.179772,-0.994667 0.02382,-1.303868 -0.284133,-0.563338 -0.761986,-0.86104 -1.382091,-0.86104 -0.73165,0 -1.33951,0.4806808 -1.496829,1.1836543 -0.165983,0.7416914 0.288333,1.538406 1.002407,1.7578802 0.404827,0.1244253 0.415097,0.1248937 0.822542,0.037512 z"
     id="path12"
     inkscape:connector-curvature="0" />
</svg>
